# xmcd
#
# Track frame offsets:
#	150
#	24844
#	72414
#	85618
#	102059
#	114510
#
# Disc length: 1853 seconds
#
# Revision: 1
# Processed by: cddbd v1.5.1PL0 Copyright (c) Steve Scherf et al.
# Submitted via: CDex 1.50Beta5
#
DISCID=3c073b06
DTITLE=三木眞一郎 - 悠久幻想曲
DYEAR=1900
DGENRE=Pop
TTITLE0=I'm Over Drive
TTITLE1=オリジナルドラマ
TTITLE2=Refrain Wind Original
TTITLE3=Refrain Wind Arranged
TTITLE4=三木的にゼファーってのは
TTITLE5=I'm Over Drive カラオケ
EXTD=
EXTT0=
EXTT1=
EXTT2=
EXTT3=
EXTT4=
EXTT5=
PLAYORDER=
